<svg width="84" height="25" viewBox="0 0 84 25" fill="none" xmlns="http://www.w3.org/2000/svg">
<path d="M0.864 15.52L6.504 5.992H1.08V2.488H11.88V5.992L6.36 15.496H12.12V19H0.864V15.52ZM18.4084 19.192C17.0644 19.192 16.0164 18.76 15.2644 17.896C14.5124 17.032 14.1364 15.856 14.1364 14.368V6.976H19.2244V14.152C19.2244 14.52 19.3204 14.808 19.5124 15.016C19.7204 15.208 19.9844 15.304 20.3044 15.304C20.6244 15.304 20.9524 15.208 21.2884 15.016L21.5524 18.352C21.2004 18.624 20.7364 18.832 20.1604 18.976C19.6004 19.12 19.0164 19.192 18.4084 19.192ZM16.6804 5.176C15.9284 5.176 15.2884 4.944 14.7604 4.48C14.2484 4 13.9924 3.416 13.9924 2.728C13.9924 2.04 14.2644 1.464 14.8084 0.999999C15.3524 0.535999 15.9764 0.303999 16.6804 0.303999C17.4164 0.303999 18.0484 0.543999 18.5764 1.024C19.1204 1.504 19.3924 2.072 19.3924 2.728C19.3924 3.432 19.1204 4.016 18.5764 4.48C18.0324 4.944 17.4004 5.176 16.6804 5.176ZM22.95 7.144H27.774V9.592C28.702 7.736 30.174 6.808 32.19 6.808C33.726 6.808 34.926 7.36 35.79 8.464C36.67 9.552 37.11 11.064 37.11 13V19H32.07V12.496C32.07 11.808 31.918 11.28 31.614 10.912C31.326 10.544 30.918 10.36 30.39 10.36C30.006 10.36 29.63 10.488 29.262 10.744C28.894 10.984 28.59 11.336 28.35 11.8C28.126 12.264 28.014 12.792 28.014 13.384V19H22.95V7.144ZM46.2186 24.496C45.3386 24.496 44.4986 24.408 43.6986 24.232L44.0826 20.68C44.7066 20.776 45.2826 20.824 45.8106 20.824C46.8026 20.824 47.5546 20.528 48.0666 19.936C48.5786 19.36 48.8826 18.384 48.9786 17.008C48.0346 18.336 46.5946 19 44.6586 19C43.6026 19 42.6266 18.728 41.7306 18.184C40.8506 17.64 40.1466 16.904 39.6186 15.976C39.1066 15.048 38.8506 14.032 38.8506 12.928C38.8506 11.808 39.1066 10.784 39.6186 9.856C40.1306 8.912 40.8266 8.168 41.7066 7.624C42.6026 7.08 43.5786 6.808 44.6346 6.808C45.6106 6.808 46.4586 7.064 47.1786 7.576C47.9146 8.072 48.3946 8.744 48.6186 9.592V6.808H53.6826V15.952C53.6826 18.752 53.0426 20.872 51.7626 22.312C50.4986 23.768 48.6506 24.496 46.2186 24.496ZM46.2186 15.4C46.8586 15.4 47.4106 15.176 47.8746 14.728C48.3386 14.264 48.5866 13.72 48.6186 13.096V12.904C48.5866 12.296 48.3306 11.76 47.8506 11.296C47.3866 10.832 46.8426 10.6 46.2186 10.6C45.5626 10.6 45.0026 10.84 44.5386 11.32C44.0746 11.784 43.8426 12.344 43.8426 13C43.8426 13.656 44.0746 14.224 44.5386 14.704C45.0026 15.168 45.5626 15.4 46.2186 15.4ZM62.3301 19.192C61.0021 19.192 59.8181 18.928 58.7781 18.4C57.7541 17.856 56.9541 17.12 56.3781 16.192C55.8021 15.248 55.5141 14.184 55.5141 13C55.5141 11.784 55.8101 10.704 56.4021 9.76C56.9941 8.816 57.7941 8.088 58.8021 7.576C59.8101 7.064 60.9301 6.808 62.1621 6.808C63.3461 6.808 64.3541 7.072 65.1861 7.6C66.0341 8.112 66.6661 8.816 67.0821 9.712C67.4981 10.592 67.7061 11.584 67.7061 12.688C67.7061 12.976 67.6901 13.184 67.6581 13.312L60.4581 14.248C60.6501 14.808 60.9621 15.216 61.3941 15.472C61.8261 15.712 62.3941 15.832 63.0981 15.832C64.1861 15.832 65.3621 15.552 66.6261 14.992L67.2261 18.208C65.7381 18.864 64.1061 19.192 62.3301 19.192ZM63.9861 11.224C63.7301 10.216 63.1221 9.712 62.1621 9.712C61.5861 9.712 61.1301 9.928 60.7941 10.36C60.4581 10.792 60.2821 11.352 60.2661 12.04L63.9861 11.224ZM69.45 7.144H74.274V9.592C75.202 7.736 76.674 6.808 78.69 6.808C80.226 6.808 81.426 7.36 82.29 8.464C83.17 9.552 83.61 11.064 83.61 13V19H78.57V12.496C78.57 11.808 78.418 11.28 78.114 10.912C77.826 10.544 77.418 10.36 76.89 10.36C76.506 10.36 76.13 10.488 75.762 10.744C75.394 10.984 75.09 11.336 74.85 11.8C74.626 12.264 74.514 12.792 74.514 13.384V19H69.45V7.144Z" fill="#F4F4F5"/>
</svg>
